<svg width="18" height="18" viewBox="0 0 18 18" fill="none" xmlns="http://www.w3.org/2000/svg">
<path fill-rule="evenodd" clip-rule="evenodd" d="M12.5036 11H11.7096L11.4336 10.726C12.4086 9.589 13.0016 8.115 13.0016 6.5C13.0016 2.91 10.0916 -1.90735e-06 6.50159 -1.90735e-06C2.91159 -1.90735e-06 0.00158691 2.91 0.00158691 6.5C0.00158691 10.09 2.91159 13 6.50159 13C8.11659 13 9.58959 12.408 10.7266 11.434L11.0026 11.708V12.5L16.0006 17.491L17.4916 16L12.5036 11ZM6.50159 11C4.01559 11 2.00159 8.986 2.00159 6.5C2.00159 4.015 4.01559 2 6.50159 2C8.98659 2 11.0016 4.015 11.0016 6.5C11.0016 8.986 8.98659 11 6.50159 11Z" fill="#757575"/>
</svg>
