<svg width="24" height="24" viewBox="0 0 24 24" fill="none" xmlns="http://www.w3.org/2000/svg">
<path d="M22.7964 13.55V22C22.7964 23.1028 21.8995 24 20.7969 24H3.20099C2.09845 24 1.20145 23.1028 1.20145 22V13.55C1.20145 13.3291 1.38051 13.15 1.60136 13.15C1.82221 13.15 2.00127 13.3291 2.00127 13.55V22C2.00127 22.6617 2.53944 23.2 3.20099 23.2H7.54998V16.45C7.54998 15.3472 8.44697 14.45 9.54952 14.45H14.4484C15.5509 14.45 16.4479 15.3472 16.4479 16.45V21.6C16.4479 21.8209 16.2689 22 16.048 22C15.8272 22 15.6481 21.8209 15.6481 21.6V16.45C15.6481 15.7884 15.1099 15.25 14.4484 15.25H9.54952C8.88802 15.25 8.3498 15.7884 8.3498 16.45V23.2H11.599V16.9C11.599 16.6791 11.7781 16.5 11.9989 16.5C12.2198 16.5 12.3989 16.6791 12.3989 16.9V23.2H20.7969C21.4584 23.2 21.9966 22.6617 21.9966 22V13.55C21.9966 13.3291 22.1757 13.15 22.3965 13.15C22.6174 13.15 22.7964 13.3291 22.7964 13.55ZM2.60113 6.4C2.60113 6.6209 2.78019 6.8 3.00104 6.8C24.7594 6.8 23.6806 6.8389 23.8396 6.71695C23.9226 6.653 23.977 6.56075 23.9919 6.45535C24.0142 6.2946 24.1577 6.6899 21.3638 0.24095C21.3003 0.09465 21.1562 0 20.9968 0H3.00099C2.84162 0 2.69741 0.0947 2.63407 0.24095L0.0346747 6.24095C-0.0112647 6.34705 0.00168234 6.17865 0.00168234 8.8816C0.00458167 10.7009 1.48459 12.181 3.30092 12.181C4.54958 12.181 5.63927 11.4815 6.19939 10.4532C7.4504 12.7527 10.7456 12.7552 11.9989 10.4547C13.2512 12.7534 16.5449 12.7538 17.7976 10.4547C18.3573 11.4821 19.4471 12.181 20.6969 12.181C22.5161 12.181 23.9961 10.7006 23.9961 8.88095C23.9961 8.66005 23.8171 8.48095 23.5962 8.48095C23.3754 8.48095 23.1963 8.66005 23.1963 8.88095C23.1963 10.2594 22.0751 11.3809 20.6969 11.3809C19.3187 11.3809 18.1975 10.2594 18.1975 8.88095C18.1975 8.66005 18.0184 8.48095 17.7976 8.48095C17.5767 8.48095 17.3976 8.66005 17.3976 8.88095C17.3976 10.2594 16.2764 11.3809 14.8982 11.3809C13.52 11.3809 12.3988 10.2594 12.3988 8.88095C12.3988 8.66005 12.2197 8.48095 11.9989 8.48095C11.7781 8.48095 11.599 8.66005 11.599 8.88095C11.599 10.2594 10.4778 11.3809 9.09957 11.3809C7.75203 11.3809 6.60015 10.2977 6.60015 8.86095C6.60015 8.64005 6.42109 8.46095 6.20024 8.46095C5.9794 8.46095 5.80034 8.64005 5.80034 8.86095C5.80034 10.2856 4.65565 11.3809 3.30092 11.3809C1.92494 11.3809 0.803646 10.2592 0.801497 8.88095V6.4829L3.26358 0.8H20.7343L22.9871 6H3.00104C2.78014 6 2.60113 6.17905 2.60113 6.4Z" fill="#2B71B8"/>
</svg>
